<?xml version="1.0" encoding="utf-8"?>
<!-- Generator: Adobe Illustrator 16.0.0, SVG Export Plug-In . SVG Version: 6.00 Build 0)  -->
<!DOCTYPE svg PUBLIC "-//W3C//DTD SVG 1.1//EN" "http://www.w3.org/Graphics/SVG/1.1/DTD/svg11.dtd">
<svg version="1.1" id="Ebene_1" xmlns="http://www.w3.org/2000/svg" xmlns:xlink="http://www.w3.org/1999/xlink" x="0px" y="0px"
	 width="396.85px" height="283.46px" viewBox="0 0 396.85 283.46" enable-background="new 0 0 396.85 283.46" xml:space="preserve">
<g id="Ebene_2">
	<g>
		<g>
			<polygon fill="#FFFFFF" stroke="#FFFFFF" stroke-width="3" stroke-miterlimit="10" points="55.532,211.885 19.797,57.091 
				88.962,40.671 90.371,46.607 27.107,61.628 61.267,209.594 			"/>
		</g>
		<path fill="none" stroke="#010202" stroke-width="4" stroke-miterlimit="10" d="M106.401,39.721"/>
		<path fill="none" stroke="#FFFFFF" stroke-width="7" stroke-miterlimit="10" d="M71.659,60.863
			c-14.916,3.492-24.177,18.416-20.686,33.333c3.492,14.917,18.416,24.178,33.333,20.686c4.72-1.104,8.87-3.356,12.233-6.388
			L92.2,64.061C86.242,60.503,78.952,59.156,71.659,60.863z"/>
		<path fill="none" stroke="#010202" stroke-width="4" stroke-miterlimit="10" d="M97.407,66.558"/>
		<g>
			<path fill="#FFFFFF" stroke="#FFFFFF" stroke-width="3" stroke-miterlimit="10" d="M94.968,197.361c-0.001,0-0.001,0-0.002,0
				c-0.747,0-1.489-0.022-2.226-0.063c-16.921-0.965-31.173-12.845-35.085-29.554c-4.82-20.59,8.01-41.263,28.599-46.083
				c3.939-0.921,8.025-1.214,12.058-0.867l1.895,0.164l3.875,39.682c0.008,0.08,0.585,5.379,3.643,13.061
				c1.73,4.345-4.242-4.479-0.578,0.877l0,0l-22.039,7.162C81.634,183.857,97.902,197.361,94.968,197.361z M94.987,125.229
				c-2.583,0-5.17,0.298-7.692,0.889c-18.133,4.246-29.431,22.451-25.186,40.583c3.402,14.533,15.686,24.919,30.343,25.991
				c0.831,0.061-1.544,3.235,0.999,2.64c2.715-0.635-11.978-9.961-9.511-11.234c-3.364-5.241,20.835-5.258,19.205-9.477
				c-3.019-7.813-3.586-13.181-3.621-13.534l-3.5-35.844C95.678,125.233,95.332,125.229,94.987,125.229z"/>
		</g>
		<path fill="none" stroke="#010202" stroke-width="4" stroke-miterlimit="10" d="M97.35,122.312l0.385,3.939"/>
		<path fill="none" stroke="#010202" stroke-width="4" stroke-miterlimit="10" d="M97.35,122.312"/>
		<path fill="none" stroke="#010202" stroke-width="4" stroke-miterlimit="10" d="M110.875,185.783
			c0.661,1.072,1.365,2.158,2.115,3.257"/>
		<circle fill="#FFFFFF" stroke="#FFFFFF" stroke-width="5" stroke-miterlimit="10" cx="77.984" cy="87.872" r="7.325"/>
		<path fill="none" stroke="#FFFFFF" stroke-width="8" stroke-miterlimit="10" d="M101.04,162.391l-1.105-11.322
			c-2.381-1.436-5.299-1.984-8.221-1.301c-5.943,1.391-9.634,7.336-8.243,13.279c1.392,5.943,7.336,9.633,13.279,8.24
			c2.162-0.506,4.021-1.619,5.451-3.111C101.252,164.565,101.04,162.391,101.04,162.391z"/>
	</g>
	<g>
		<g>
			<g>
				<polygon fill="#FFFFFF" stroke="#FFFFFF" stroke-width="3" stroke-miterlimit="10" points="336.584,205.251 369.741,61.628 
					306.477,46.607 307.887,40.671 377.052,57.091 342.466,206.907 				"/>
			</g>
			<path fill="none" stroke="#010202" stroke-width="4" stroke-miterlimit="10" d="M290.447,39.721"/>
			<path fill="none" stroke="#FFFFFF" stroke-width="7" stroke-miterlimit="10" d="M325.189,60.863
				c14.915,3.492,24.178,18.416,20.686,33.333c-3.492,14.917-18.416,24.178-33.333,20.686c-4.72-1.104-8.87-3.356-12.233-6.388
				l4.34-44.434C310.606,60.503,317.896,59.156,325.189,60.863z"/>
			<path fill="none" stroke="#010202" stroke-width="4" stroke-miterlimit="10" d="M299.441,66.558"/>
			<path fill="none" stroke="#FFFFFF" stroke-width="9" stroke-miterlimit="10" d="M299.5,122.312
				c3.703-0.321,7.52-0.079,11.338,0.815c19.393,4.54,31.431,23.941,26.893,43.332c-2.967,12.669-12.268,22.224-23.782,26.02
				l0.536-0.187l6.844-13.929l-27.208-8.869l1.689-9.393L299.5,122.312z"/>
			<path fill="none" stroke="#010202" stroke-width="4" stroke-miterlimit="10" d="M299.5,122.312l-0.385,3.939"/>
			<path fill="none" stroke="#010202" stroke-width="4" stroke-miterlimit="10" d="M299.5,122.312"/>
			<path fill="none" stroke="#010202" stroke-width="4" stroke-miterlimit="10" d="M285.975,185.783
				c-0.659,1.072-1.365,2.158-2.113,3.257"/>
			<circle fill="#FFFFFF" stroke="#FFFFFF" stroke-width="5" stroke-miterlimit="10" cx="318.865" cy="87.872" r="7.325"/>
			<path fill="none" stroke="#FFFFFF" stroke-width="8" stroke-miterlimit="10" d="M296.572,159.339l1.105-11.321
				c2.38-1.436,5.299-1.985,8.221-1.301c5.942,1.391,9.633,7.336,8.242,13.279c-1.392,5.942-7.336,9.633-13.279,8.24
				c-2.162-0.506-4.021-1.62-5.45-3.111C296.359,161.514,296.572,159.339,296.572,159.339z"/>
		</g>
	</g>
</g>
<g id="Ebene_4">
	<g id="Ebene_3">
		<path fill="#FFFFFF" stroke="#FFFFFF" stroke-width="3" stroke-miterlimit="10" d="M123.517,89.895l5.482,0.375
			c5.685-5.944,7.918-23.523,41.415-20.083c-1.135,70.192-32.236,81.876-34.666,95.646c-0.178,1.008,36.904,0.563,37.84-3.457
			c4.178-17.949,6.594-47.533,11.037-92.378h33.092c-1.762,28.405-6.564,56.809-7.107,84.65c0.061,2.7,0.369,5.217,0.906,7.547
			l56.284,3.719c4.41-8.016,6.15-16.978,6.15-22.527h-5.684c-0.541,10.01-5.752,17.206-16.849,17.644
			c-30.25,0.374-13.604-49.175-13.4-90.656l37.812-0.28c2.144-13.628,3.604-21.279,3.604-21.279
			C130.078,48.146,143.352,45.979,123.517,89.895z"/>
	</g>
</g>
<g id="Ebene_3_1_">
	<polygon fill="#FFFFFF" stroke="#FFFFFF" stroke-width="3" stroke-miterlimit="10" points="128.981,228.12 121.163,221.383 
		100.277,227.574 94.554,200.168 98.469,229.106 120.018,229.488 63.061,254.982 76.893,227.478 47.938,215.491 94.803,201.874 
		94.453,199.687 37.443,215.751 70.834,228.967 52.699,264.863 	"/>
	<g>
		<g>
			<path fill="none" d="M203.284,269.136c13.954-11.031,36.833-30.855,55.351-51.551c-29.234-3.473-68.058-5.767-106.744-1.129
				c-1.242,0.148-2.484,0.306-3.725,0.469c-1.31,0.173-2.618,0.368-3.926,0.557C164.214,238.229,188.508,258.079,203.284,269.136z"
				/>
			<path fill="none" d="M300.009,28.025c-43.664-8.247-71.842-11.486-99.321-11.486c-30.871,0-60.714,4.234-103.793,12.073
				c2.464,17.945,10.251,77.307,13.997,136.468c0.143,2.256,0.627,4.638,1.4,7.119c1.286-0.293,2.581-0.582,3.896-0.861
				c1.214-0.258,2.443-0.51,3.683-0.757c47.894-9.536,113.983-10.444,168.063-0.522c0.217-1.271,0.358-2.516,0.401-3.722
				C290.417,106.863,297.707,46.115,300.009,28.025z"/>
			<path fill="#FFFFFF" d="M203.284,269.136c-14.777-11.056-39.07-30.907-59.045-51.653c-4.553,0.657-9.095,1.413-13.61,2.284
				c6.045,6.6,12.95,13.523,20.73,20.771c24.195,22.536,48.408,40.228,48.648,40.404l3.458,2.519l3.394-2.604
				c0.922-0.709,22.854-17.597,45.339-39.878c7.615-7.547,14.321-14.748,20.122-21.599c-4.271-0.613-8.847-1.22-13.686-1.795
				C240.117,238.279,217.238,258.104,203.284,269.136z"/>
			<path fill="#FFFFFF" d="M110.891,165.08c-3.746-59.161-11.533-118.522-13.997-136.468c43.08-7.838,72.923-12.072,103.793-12.072
				c27.479,0,55.657,3.24,99.321,11.486c-2.303,18.088-9.592,78.837-11.675,138.312c-0.043,1.207-0.185,2.451-0.401,3.723
				c3.8,0.696,7.546,1.441,11.216,2.246c0.349-1.914,0.557-3.77,0.619-5.566c2.453-69.999,12.183-141.831,12.28-142.549l0.734-5.368
				l-5.321-1.024C259.982,8.66,230.046,5.098,200.688,5.098c-33.021,0-64.576,4.657-111.256,13.249l-5.417,0.998l0.79,5.451
				c0.102,0.702,10.234,71.017,14.666,141.01c0.184,2.908,0.765,5.976,1.742,9.199c3.542-0.994,7.241-1.928,11.078-2.803
				C111.518,169.719,111.034,167.336,110.891,165.08z"/>
			<path fill="none" stroke="#FFFFFF" stroke-width="9" stroke-miterlimit="10" d="M299.148,172.307
				c-1.617-0.355-3.248-0.697-4.893-1.029c-2.088-0.423-4.196-0.828-6.323-1.219c-54.081-9.922-120.169-9.014-168.063,0.523
				c-1.239,0.247-2.468,0.498-3.683,0.756c-1.315,0.281-2.611,0.569-3.896,0.861c-3.837,0.876-7.536,1.811-11.078,2.803
				c-7.517,2.108-14.331,4.479-20.266,7.099c0,0,12.392,9.566,14.681,21.777c3.017,16.091,3.017,24.242,3.017,24.242
				c10.355-3.522,21.093-6.255,31.984-8.354c4.515-0.872,9.057-1.627,13.61-2.284c1.308-0.189,2.617-0.385,3.926-0.558
				c1.241-0.163,2.483-0.319,3.725-0.468c38.686-4.639,77.509-2.344,106.744,1.128c4.84,0.575,9.415,1.183,13.686,1.796
				c21.729,3.122,35.511,6.404,35.511,6.404s0.957-14.965,3.154-24.152c2.956-12.365,11.106-23.268,11.106-23.268
				C314.85,176.08,307.165,174.064,299.148,172.307z"/>
		</g>
	</g>
	<g>
		<path fill="#FFFFFF" stroke="#FFFFFF" stroke-width="3" stroke-miterlimit="10" d="M114.333,200.433l0.847,6.188
			c0.169,1.234,0.51,2.02,1.021,2.353c0.434,0.298,1.127,0.327,2.078,0.088l0.931-0.234l0.223,1.629l-10.465,2.632l-0.223-1.628
			l0.465-0.116c0.801-0.202,1.324-0.467,1.568-0.795c0.306-0.413,0.39-1.123,0.252-2.126l-2.447-17.87
			c-0.168-1.234-0.545-1.904-1.129-2.01c-0.329-0.058-0.779-0.016-1.35,0.128l-0.675,0.17l-0.223-1.628
			c1.097-0.388,2.737-0.954,4.924-1.7c2.302-0.734,3.917-1.219,4.849-1.451c2.803-0.706,5.055-0.438,6.758,0.805
			c1.566,1.15,2.51,2.898,2.831,5.245c0.509,3.719-0.667,6.547-3.528,8.488c-0.929,0.626-1.973,1.087-3.135,1.379
			C116.763,200.264,115.572,200.416,114.333,200.433z M112.479,186.898l1.62,11.825c0.668,0.043,1.423-0.042,2.264-0.253
			c1.921-0.484,3.104-1.785,3.55-3.904c0.212-1.021,0.226-2.21,0.04-3.567c-0.262-1.913-0.862-3.307-1.799-4.179
			c-0.938-0.873-2.112-1.132-3.523-0.777C113.909,186.225,113.192,186.51,112.479,186.898z"/>
	</g>
	<g>
		<path fill="#FFFFFF" stroke="#FFFFFF" stroke-width="3" stroke-miterlimit="10" d="M141.473,193.359l0.402,6.436
			c0.128,2.05,1.013,2.979,2.657,2.789l0.928-0.105l0.103,1.65l-10.911,1.251l-0.103-1.649l0.502-0.058
			c0.943-0.108,1.602-0.378,1.973-0.809c0.438-0.507,0.62-1.366,0.544-2.576l-1.042-16.685c-0.076-1.225-0.314-2.046-0.714-2.464
			c-0.399-0.417-1.054-0.574-1.968-0.47l-0.654,0.076l-0.103-1.651l3.997-0.79c2.107-0.449,3.805-0.748,5.093-0.896
			c2.323-0.268,4.158-0.254,5.504,0.033c1.346,0.289,2.449,0.924,3.307,1.906c1.079,1.233,1.675,2.778,1.792,4.635
			c0.213,3.41-1.183,5.855-4.186,7.335c0.771,0.716,1.687,1.905,2.751,3.568c0.667,1.046,1.716,2.539,3.146,4.48
			c0.672,0.78,1.334,1.314,1.986,1.6c0.556,0.241,1.321,0.381,2.295,0.422l0.101,1.63c-0.454,0.095-1.097,0.188-1.929,0.284
			c-2.425,0.278-4.208,0.103-5.352-0.528c-0.603-0.318-1.184-0.799-1.745-1.44c-0.617-0.706-1.327-1.69-2.131-2.955l-2.004-3.156
			c-0.507-0.745-1.098-1.46-1.774-2.144L141.473,193.359z M140.603,179.416l0.761,12.169l1.218-0.14
			c1.846-0.212,3.211-0.756,4.097-1.634c1.126-1.099,1.618-2.811,1.472-5.135c-0.253-4.055-2.227-5.871-5.918-5.448L140.603,179.416
			z"/>
	</g>
	<g>
		<path fill="#FFFFFF" stroke="#FFFFFF" stroke-width="3" stroke-miterlimit="10" d="M165.072,188.345
			c0-4.181,1.123-7.63,3.367-10.349c2.245-2.719,5.119-4.078,8.621-4.078c3.289,0,5.971,1.252,8.048,3.758
			c2.076,2.504,3.115,5.742,3.115,9.717c0,3.022-0.626,5.721-1.878,8.094c-1.222,2.318-2.881,4.009-4.979,5.07
			c-1.466,0.759-3.1,1.139-4.902,1.139c-2.087,0-3.985-0.524-5.696-1.573c-1.894-1.173-3.34-2.877-4.337-5.112
			C165.524,192.982,165.072,190.76,165.072,188.345z M169.745,186.297c0,4.001,0.692,7.271,2.078,9.811
			c1.354,2.512,3.14,3.767,5.36,3.767c2.75,0,4.643-1.813,5.681-5.443c0.469-1.67,0.703-3.505,0.703-5.507
			c0-3.643-0.626-6.713-1.878-9.211c-1.324-2.649-3.115-3.975-5.375-3.975c-2.708,0-4.623,1.67-5.742,5.01
			C170.02,182.363,169.745,184.213,169.745,186.297z"/>
	</g>
	<g>
		<path fill="#FFFFFF" stroke="#FFFFFF" stroke-width="3" stroke-miterlimit="10" d="M198.375,173.891v-1.656h9.927v1.656h-0.474
			c-1.507,0-2.26,1.063-2.26,3.188v18.525c0,4.21-0.907,7.542-2.719,9.997c-1.293,1.753-2.982,2.629-5.069,2.629
			c-2.25,0-3.376-0.821-3.376-2.464c0-0.745,0.235-1.386,0.703-1.925c0.438-0.496,0.938-0.745,1.497-0.745
			c0.428,0,0.81,0.158,1.146,0.476c0.08,0.083,0.381,0.463,0.9,1.139c0.468,0.62,0.824,0.932,1.068,0.932
			c1.029,0,1.542-1.387,1.542-4.16v-24.445c0-2.099-0.773-3.147-2.321-3.147h-0.564V173.891z"/>
	</g>
	<g>
		<path fill="#FFFFFF" stroke="#FFFFFF" stroke-width="3" stroke-miterlimit="10" d="M237.947,182.133
			c-0.109-1.301-0.257-2.189-0.442-2.664c-0.312-0.782-0.86-1.187-1.644-1.211l-6.855-0.215l-0.163,9.54l5.069,0.158
			c0.844,0.026,1.451-0.182,1.822-0.626c0.368-0.443,0.562-1.23,0.582-2.362l1.252,0.039l-0.144,8.442l-1.253-0.039
			c0.025-1.517-0.294-2.452-0.961-2.805c-0.402-0.206-1.006-0.321-1.812-0.347l-4.595-0.144l-0.131,7.636
			c-0.014,0.773,0.034,1.298,0.142,1.577c0.146,0.42,0.473,0.637,0.982,0.652l5.221,0.164c1.14,0.036,1.981-0.282,2.522-0.957
			c0.489-0.591,0.873-1.676,1.156-3.255l1.174,0.036l-0.479,6.652l-18.824-0.591l0.026-1.655l1.284,0.04
			c1.628,0.051,2.459-0.937,2.494-2.965l0.289-16.907c0.021-1.255-0.193-2.111-0.644-2.566c-0.38-0.385-1.06-0.592-2.036-0.623
			l-0.306-0.009l0.028-1.656l17.221,0.541l0.217,6.156L237.947,182.133z"/>
	</g>
	<g>
		<path fill="#FFFFFF" stroke="#FFFFFF" stroke-width="3" stroke-miterlimit="10" d="M270.419,198.314l1.251,0.067
			c-0.358,2.535-1.018,5.075-1.979,7.62c-0.462-0.218-1.074-0.347-1.838-0.389c-0.387-0.021-1.188,0.064-2.399,0.256
			c-1.213,0.191-2.211,0.266-2.995,0.224c-2.015-0.107-3.859-0.772-5.536-1.994c-1.765-1.282-3.146-3.046-4.141-5.296
			c-0.946-2.148-1.383-4.485-1.31-7.009c0.111-3.874,1.365-7.098,3.758-9.67s5.268-3.77,8.624-3.59
			c1.384,0.073,2.628,0.388,3.733,0.944c1.425,0.739,2.163,1.109,2.215,1.113c0.243,0.012,0.456-0.114,0.638-0.381l0.777,0.041
			l0.076,7.421l-1.222-0.065c-0.599-2.877-1.713-4.869-3.341-5.979c-0.82-0.555-1.718-0.857-2.694-0.909
			c-2.228-0.119-4.069,0.826-5.523,2.833c-1.476,2.049-2.263,4.727-2.358,8.035c-0.062,2.139,0.207,4.134,0.805,5.989
			c0.637,1.967,1.569,3.53,2.8,4.687c1.179,1.126,2.496,1.728,3.951,1.806c1.475,0.079,2.81-0.417,4.002-1.485
			C268.842,201.565,269.744,200.143,270.419,198.314z"/>
	</g>
	<g>
		<path fill="#FFFFFF" stroke="#FFFFFF" stroke-width="3" stroke-miterlimit="10" d="M295.486,187.688l-2.171,19.108
			c-0.142,1.24-0.016,2.133,0.376,2.675c0.337,0.476,0.988,0.813,1.955,1.016l0.74,0.154l-0.186,1.637l-11.124-2.321l0.186-1.638
			l1.041,0.218c1.59,0.332,2.504-0.546,2.741-2.633l2.171-19.108l-3.653-0.762c-0.735-0.153-1.27-0.195-1.607-0.126
			c-0.548,0.11-0.973,0.495-1.274,1.159c-0.284,0.596-0.621,1.663-1.013,3.2l-1.269-0.265l1.448-7.719l0.997,0.208
			c0.24,0.414,0.415,0.651,0.521,0.716c0.192,0.125,0.484,0.227,0.877,0.309l14.716,3.072c0.604,0.125,1.123-0.01,1.56-0.408
			l0.996,0.207l-0.331,7.954l-1.268-0.266c-0.024-1.331-0.063-2.219-0.115-2.663c-0.14-1.131-0.429-1.884-0.872-2.255
			c-0.366-0.301-0.97-0.537-1.804-0.712L295.486,187.688z"/>
	</g>
	<g>
		<path fill="none" d="M114.964,222.861"/>
	</g>
	<g>
		<path fill="none" d="M132.287,227.168"/>
	</g>
	<polygon fill="#FFFFFF" stroke="#FFFFFF" stroke-width="3" stroke-miterlimit="10" points="276.321,226.595 284.141,219.857 
		305.025,226.049 310.75,198.643 306.834,227.581 285.285,227.962 342.241,253.456 328.409,225.952 357.364,213.966 310.5,200.349 
		310.85,198.161 367.86,214.226 334.469,227.44 352.604,263.338 	"/>
</g>
</svg>
